<?xml version="1.0" encoding="UTF-8" standalone="no"?>
<svg
   xmlns:dc="http://purl.org/dc/elements/1.1/"
   xmlns:cc="http://creativecommons.org/ns#"
   xmlns:rdf="http://www.w3.org/1999/02/22-rdf-syntax-ns#"
   xmlns:svg="http://www.w3.org/2000/svg"
   xmlns="http://www.w3.org/2000/svg"
   xmlns:sodipodi="http://sodipodi.sourceforge.net/DTD/sodipodi-0.dtd"
   xmlns:inkscape="http://www.inkscape.org/namespaces/inkscape"
   width="33.921055mm"
   height="37.241734mm"
   viewBox="0 0 33.921055 37.241733"
   version="1.1"
   id="svg8"
   inkscape:version="1.0.2-2 (e86c870879, 2021-01-15)"
   sodipodi:docname="logo-bg.svg">
  <defs
     id="defs2" />
  <sodipodi:namedview
     id="base"
     pagecolor="#ffffff"
     bordercolor="#666666"
     borderopacity="1.0"
     inkscape:pageopacity="0.0"
     inkscape:pageshadow="2"
     inkscape:zoom="4.2620581"
     inkscape:cx="87.480307"
     inkscape:cy="35.745404"
     inkscape:document-units="mm"
     inkscape:current-layer="g989"
     inkscape:document-rotation="0"
     showgrid="false"
     inkscape:snap-center="true"
     showguides="false"
     inkscape:window-width="1920"
     inkscape:window-height="1001"
     inkscape:window-x="-9"
     inkscape:window-y="-9"
     inkscape:window-maximized="1" />
  <metadata
     id="metadata5">
    <rdf:RDF>
      <cc:Work
         rdf:about="">
        <dc:format>image/svg+xml</dc:format>
        <dc:type
           rdf:resource="http://purl.org/dc/dcmitype/StillImage" />
        <dc:title />
      </cc:Work>
    </rdf:RDF>
  </metadata>
  <g
     inkscape:label="chicken"
     inkscape:groupmode="layer"
     id="layer1"
     transform="translate(-44.748863,-62.1772)">
    <g
       inkscape:groupmode="layer"
       id="layer3"
       inkscape:label="chicken 1" />
    <g
       id="g989">
      <path
         id="path871"
         style="fill:#e17a7a;fill-opacity:1;stroke:#e17a7a;stroke-width:1.44568;stroke-linecap:butt;stroke-linejoin:miter;stroke-miterlimit:4;stroke-dasharray:none;stroke-opacity:1;opacity:0.999"
         d="m 62.069199,63.193942 c -15.294373,2.258666 -9.712587,10.97039 -9.712587,10.97039 0,0 -5.192814,4.336243 -6.430622,5.011541 4.773145,4.963383 10.800684,-2.58419 5.47387,8.271145 -3.909855,8.62243 -0.877613,9.101182 -0.877613,9.101182 11.680548,-7.034135 5.072407,-18.068183 5.55647,-18.681252 0.48401,-0.61305 1.376,-4.864232 11.830436,-3.186367 10.454542,1.677869 10.035045,-7.195428 10.035045,-7.195428 -14.616845,4.549603 -6.969601,-3.258714 -6.969601,-3.258714 -1.161592,-0.484002 -7.582725,2.839585 -10.260872,3.065444 -2.678144,0.225867 1.355474,-4.097941 1.355474,-4.097941 z"
         sodipodi:nodetypes="ccccccsccsc" />
      <g
         aria-label="U"
         transform="matrix(1,0,0,-1,29.260162,9.7056721)"
         id="text913"
         style="font-size:7.40311px;line-height:1.25;font-family:sans-serif;letter-spacing:0px;opacity:0.997;fill:#e17a7a;fill-opacity:1;stroke-width:3.28507;stroke-miterlimit:4;stroke-dasharray:none">
        <path
           d="m 34.88341,-70.145324 c 0.0064,0.417131 -0.04636,0.781571 -0.139059,1.093169 -0.09013,0.309023 -0.239493,0.566542 -0.448083,0.772557 -0.19829,0.195714 -0.430058,0.338637 -0.695302,0.428769 -0.265245,0.09013 -0.574268,0.135197 -0.927069,0.135197 -0.360526,0 -0.6747,-0.04764 -0.942519,-0.142922 -0.267821,-0.09528 -0.49315,-0.23563 -0.675988,-0.421044 -0.20859,-0.211165 -0.35924,-0.466109 -0.451947,-0.764832 -0.09014,-0.298723 -0.135197,-0.665687 -0.135197,-1.100894 l 0.01262,-2.469842 0.777454,0.01262 -0.02524,2.495848 c -0.0031,0.311582 0.0206,0.557528 0.06181,0.737792 0.04378,0.180264 0.115883,0.343788 0.216317,0.490574 0.113308,0.167387 0.266532,0.293572 0.459671,0.378553 0.195715,0.08499 0.430057,0.127471 0.703028,0.127471 0.275544,0 0.509887,-0.0412 0.703026,-0.123608 0.193139,-0.08499 0.347651,-0.212453 0.463534,-0.382416 0.100438,-0.146786 0.171252,-0.314173 0.212454,-0.502162 0.04378,-0.190565 0.06567,-0.426195 0.06567,-0.706891 l 0.07573,-2.477295 0.651233,-0.02524 z"
           style="fill:#e17a7a;fill-opacity:1;stroke-width:3.51043;stroke-miterlimit:4;stroke-dasharray:none"
           id="path964"
           sodipodi:nodetypes="sccsssccsccscccscccsccs" />
      </g>
      <path
         style="fill:#e17a7a;fill-opacity:1;stroke:#e17a7a;stroke-width:1.15464;stroke-linecap:square;stroke-linejoin:round;stroke-miterlimit:4;stroke-dasharray:none;stroke-opacity:1;paint-order:fill markers stroke"
         d="m 70.721321,79.814991 c 0,0 0.26744,4.247244 -2.405257,9.058096 -1.254027,2.257248 -3.929531,11.880883 -2.001013,8.450088 1.410936,-2.510031 4.365624,-3.516923 4.068035,-1.922527 -1.618352,8.670662 4.33135,-2.123048 4.280499,0.749937 -0.06115,3.454755 1.417167,1.395685 3.011661,2.36017 0,0 -2.364895,-7.528174 -2.097626,-10.601773 0.267272,-3.073601 -4.856299,-8.093992 -4.856299,-8.093991 z"
         id="path969"
         sodipodi:nodetypes="csssscsc" />
    </g>
  </g>
  <g
     inkscape:groupmode="layer"
     id="layer4"
     inkscape:label="word"
     transform="translate(-44.748863,-62.1772)">
    <g
       inkscape:groupmode="layer"
       id="layer5"
       inkscape:label="word 1" />
  </g>
</svg>
